# xmcd
#
# Track frame offsets: 
#        150
#        19443
#        40375
#        57365
#        76376
#        88378
#        108526
#        134555
#        149574
#        172379
#        202383
#        226665
#
# Disc length: 3425 seconds
#
# Revision: 1
# Processed by: cddbd v1.5.2PL0 Copyright (c) Steve Scherf et al.
# Submitted via: ExactAudioCopy v1.1
#
DISCID=bf0d5f0c
DTITLE=Tigran Hamasyan - Shadow Theater
DYEAR=2013
DGENRE=Jazz
TTITLE0=The Poet
TTITLE1=Erishta
TTITLE2=Lament
TTITLE3=Drip
TTITLE4=The Year is gone
TTITLE5=Seafarer
TTITLE6=The Court Jester
TTITLE7=Pagan Lullaby
TTITLE8=Pt1 the Collapse
TTITLE9=Pt2 Alternative Universe
TTITLE10=Holy
TTITLE11=Road Song
EXTD=YEAR: 2013
EXTT0=
EXTT1=
EXTT2=
EXTT3=
EXTT4=
EXTT5=
EXTT6=
EXTT7=
EXTT8=
EXTT9=
EXTT10=
EXTT11=
PLAYORDER=
